<svg id="SvgjsSvg1086" width="981.6448059082031" height="283.7039489746094" xmlns="http://www.w3.org/2000/svg" version="1.1" xmlns:xlink="http://www.w3.org/1999/xlink" xmlns:svgjs="http://svgjs.com/svgjs"><defs id="SvgjsDefs1087"><marker id="SvgjsMarker1104" markerWidth="16" markerHeight="12" refX="16" refY="6" viewBox="0 0 16 12" orient="auto" markerUnits="userSpaceOnUse" stroke-dasharray="0,0"><path id="SvgjsPath1105" d="M0,2 L14,6 L0,11 L0,2" fill="#000000" stroke="#000000" stroke-width="2"></path></marker><marker id="SvgjsMarker1108" markerWidth="16" markerHeight="12" refX="16" refY="6" viewBox="0 0 16 12" orient="auto" markerUnits="userSpaceOnUse" stroke-dasharray="0,0"><path id="SvgjsPath1109" d="M0,2 L14,6 L0,11 L0,2" fill="#000000" stroke="#000000" stroke-width="2"></path></marker><marker id="SvgjsMarker1128" markerWidth="16" markerHeight="12" refX="16" refY="6" viewBox="0 0 16 12" orient="auto" markerUnits="userSpaceOnUse" stroke-dasharray="0,0"><path id="SvgjsPath1129" d="M0,2 L14,6 L0,11 L0,2" fill="#323232" stroke="#323232" stroke-width="2"></path></marker><marker id="SvgjsMarker1132" markerWidth="16" markerHeight="12" refX="16" refY="6" viewBox="0 0 16 12" orient="auto" markerUnits="userSpaceOnUse" stroke-dasharray="0,0"><path id="SvgjsPath1133" d="M0,2 L14,6 L0,11 L0,2" fill="#323232" stroke="#323232" stroke-width="2"></path></marker><marker id="SvgjsMarker1144" markerWidth="16" markerHeight="12" refX="16" refY="6" viewBox="0 0 16 12" orient="auto" markerUnits="userSpaceOnUse" stroke-dasharray="0,0"><path id="SvgjsPath1145" d="M0,2 L14,6 L0,11 L0,2" fill="#323232" stroke="#323232" stroke-width="2"></path></marker><marker id="SvgjsMarker1148" markerWidth="16" markerHeight="12" refX="16" refY="6" viewBox="0 0 16 12" orient="auto" markerUnits="userSpaceOnUse" stroke-dasharray="0,0"><path id="SvgjsPath1149" d="M0,2 L14,6 L0,11 L0,2" fill="#323232" stroke="#323232" stroke-width="2"></path></marker><marker id="SvgjsMarker1160" markerWidth="16" markerHeight="12" refX="16" refY="6" viewBox="0 0 16 12" orient="auto" markerUnits="userSpaceOnUse" stroke-dasharray="0,0"><path id="SvgjsPath1161" d="M0,2 L14,6 L0,11 L0,2" fill="#323232" stroke="#323232" stroke-width="2"></path></marker><marker id="SvgjsMarker1170" markerWidth="16" markerHeight="12" refX="16" refY="6" viewBox="0 0 16 12" orient="auto" markerUnits="userSpaceOnUse" stroke-dasharray="0,0"><path id="SvgjsPath1171" d="M0,2 L14,6 L0,11 L0,2" fill="#323232" stroke="#323232" stroke-width="2"></path></marker><marker id="SvgjsMarker1184" markerWidth="16" markerHeight="12" refX="16" refY="6" viewBox="0 0 16 12" orient="auto" markerUnits="userSpaceOnUse" stroke-dasharray="0,0"><path id="SvgjsPath1185" d="M0,2 L14,6 L0,11 L0,2" fill="#323232" stroke="#323232" stroke-width="2"></path></marker></defs><g id="SvgjsG1088" transform="translate(216.6027062660517,25.003648122151674)"><path id="SvgjsPath1089" d="M 0 35.215643564860024C 0 -11.73854785495334 83.37810326357072 -11.73854785495334 83.37810326357072 35.215643564860024C 83.37810326357072 82.16983498467339 0 82.16983498467339 0 35.215643564860024Z" stroke="rgba(0,0,0,1)" stroke-width="2" fill-opacity="1" fill="#ffffff"></path><g id="SvgjsG1090"><text id="SvgjsText1091" font-family="微软雅黑" text-anchor="middle" font-size="12px" width="64px" fill="#000000" font-weight="400" align="middle" anchor="middle" family="微软雅黑" size="12px" weight="400" font-style="" opacity="1" y="25.915643564860023" transform="rotate(0)"><tspan id="SvgjsTspan1092" dy="15" x="42"><tspan id="SvgjsTspan1093" style="text-decoration:;">MODULE</tspan></tspan></text></g></g><g id="SvgjsG1094" transform="translate(552.225857384058,189.71070049427172)"><path id="SvgjsPath1095" d="M 0 35C 0 -11.666666666666666 69.90996784389225 -11.666666666666666 69.90996784389225 35C 69.90996784389225 81.66666666666667 0 81.66666666666667 0 35Z" stroke="rgba(0,0,0,1)" stroke-width="2" fill-opacity="1" fill="#ffffff"></path><g id="SvgjsG1096"><text id="SvgjsText1097" font-family="微软雅黑" text-anchor="middle" font-size="12px" width="50px" fill="#000000" font-weight="400" align="middle" anchor="middle" family="微软雅黑" size="12px" weight="400" font-style="" opacity="1" y="18.7" transform="rotate(0)"><tspan id="SvgjsTspan1098" dy="15" x="35"><tspan id="SvgjsTspan1099" style="text-decoration:;">module </tspan></tspan><tspan id="SvgjsTspan1100" dy="15" x="35"><tspan id="SvgjsTspan1101" style="text-decoration:;">item</tspan></tspan></text></g></g><g id="SvgjsG1102"><path id="SvgjsPath1103" d="M552.225857384058 224.7107004942717L513.0427551269531 224.7107004942717L513.0427551269531 61.62737224720141" stroke="#000000" stroke-width="2" fill="none" marker-end="url(#SvgjsMarker1104)"></path></g><g id="SvgjsG1106"><path id="SvgjsPath1107" d="M197.48080952962243 60.003648122151674L207.0417578978371 60.003648122151674L207.0417578978371 60.21929168701169L216.6027062660517 60.21929168701169" stroke="#000000" stroke-width="2" fill="none" marker-end="url(#SvgjsMarker1108)"></path></g><g id="SvgjsG1110" transform="translate(25.000960806867596,41.92543029785155)"><path id="SvgjsPath1111" d="M 0 0L 144.65350850423175 0L 144.65350850423175 36.58772277832027L 0 36.58772277832027Z" stroke="none" fill="none"></path><g id="SvgjsG1112"><text id="SvgjsText1113" font-family="微软雅黑" text-anchor="middle" font-size="20px" width="145px" fill="#000000" font-weight="400" align="middle" anchor="middle" family="微软雅黑" size="20px" weight="400" font-style="" opacity="1" y="-8.706138610839865" transform="rotate(0)"><tspan id="SvgjsTspan1114" dy="25" x="72.5"><tspan id="SvgjsTspan1115" style="text-decoration:;">module_declar</tspan></tspan><tspan id="SvgjsTspan1116" dy="25" x="72.5"><tspan id="SvgjsTspan1117" style="text-decoration:;">ation</tspan></tspan></text></g></g><g id="SvgjsG1118" transform="translate(369.3141428629564,27.32407206272393)"><path id="SvgjsPath1119" d="M 0 32.91666666666666C 0 -10.97222222222222 70 -10.97222222222222 70 32.91666666666666C 70 76.80555555555553 0 76.80555555555553 0 32.91666666666666Z" stroke="rgba(0,0,0,1)" stroke-width="2" fill-opacity="1" fill="#ffffff"></path><g id="SvgjsG1120"><text id="SvgjsText1121" font-family="微软雅黑" text-anchor="middle" font-size="12px" width="50px" fill="#000000" font-weight="400" align="middle" anchor="middle" family="微软雅黑" size="12px" weight="400" font-style="" opacity="1" y="16.616666666666656" transform="rotate(0)"><tspan id="SvgjsTspan1122" dy="15" x="35"><tspan id="SvgjsTspan1123" style="text-decoration:;">port_de</tspan></tspan><tspan id="SvgjsTspan1124" dy="15" x="35"><tspan id="SvgjsTspan1125" style="text-decoration:;">claration</tspan></tspan></text></g></g><g id="SvgjsG1126"><path id="SvgjsPath1127" d="M299.98080952962243 60.21929168701169L334.6474761962894 60.21929168701169L334.6474761962894 60.24073872939064L369.3141428629564 60.24073872939064" stroke="#323232" stroke-width="2" fill="none" marker-end="url(#SvgjsMarker1128)"></path></g><g id="SvgjsG1130"><path id="SvgjsPath1131" d="M439.31414286295626 60.240738729390586L496.56414286295603 60.240738729390586L496.56414286295603 60.003648122151674L553.8141428629559 60.003648122151674" stroke="#323232" stroke-width="2" fill="none" marker-end="url(#SvgjsMarker1132)"></path></g><g id="SvgjsG1134" transform="translate(552.1808413060041,25.003648122151674)"><path id="SvgjsPath1135" d="M 0 35C 0 -11.666666666666666 70 -11.666666666666666 70 35C 70 81.66666666666667 0 81.66666666666667 0 35Z" stroke="rgba(50,50,50,1)" stroke-width="2" fill-opacity="1" fill="#ffffff"></path><g id="SvgjsG1136"><text id="SvgjsText1137" font-family="微软雅黑" text-anchor="middle" font-size="13px" width="50px" fill="#323232" font-weight="400" align="middle" anchor="middle" family="微软雅黑" size="13px" weight="400" font-style="" opacity="1" y="17.05" transform="rotate(0)"><tspan id="SvgjsTspan1138" dy="16" x="35"><tspan id="SvgjsTspan1139" style="text-decoration:;">module </tspan></tspan><tspan id="SvgjsTspan1140" dy="16" x="35"><tspan id="SvgjsTspan1141" style="text-decoration:;">item</tspan></tspan></text></g></g><g id="SvgjsG1142"><path id="SvgjsPath1143" d="M622.1808413060041 60.003648122151674L652.1808413060041 60.003648122151674L652.1808413060041 224.7107004942717L622.1358252279502 224.7107004942717" stroke="#323232" stroke-width="2" fill="none" marker-end="url(#SvgjsMarker1144)"></path></g><g id="SvgjsG1146"><path id="SvgjsPath1147" d="M622.1808413060041 60.003648122151674L681.0808254178132 60.003648122151674L681.0808254178132 60.003648122151674L739.9808095296224 60.003648122151674" stroke="#323232" stroke-width="2" fill="none" marker-end="url(#SvgjsMarker1148)"></path></g><g id="SvgjsG1150" transform="translate(739.9808095296224,25.00364812215168)"><path id="SvgjsPath1151" d="M 0 35C 0 -11.666666666666666 70 -11.666666666666666 70 35C 70 81.66666666666667 0 81.66666666666667 0 35Z" stroke="rgba(50,50,50,1)" stroke-width="2" fill-opacity="1" fill="#ffffff"></path><g id="SvgjsG1152"><text id="SvgjsText1153" font-family="微软雅黑" text-anchor="middle" font-size="12px" width="50px" fill="#323232" font-weight="400" align="middle" anchor="middle" family="微软雅黑" size="12px" weight="400" font-style="" opacity="1" y="18.7" transform="rotate(0)"><tspan id="SvgjsTspan1154" dy="15" x="35"><tspan id="SvgjsTspan1155" style="text-decoration:;">ENDMO</tspan></tspan><tspan id="SvgjsTspan1156" dy="15" x="35"><tspan id="SvgjsTspan1157" style="text-decoration:;">DULE</tspan></tspan></text></g></g><g id="SvgjsG1158"><path id="SvgjsPath1159" d="M809.9808095296224 60.003648122151674L823.3141428629556 60.003648122151674L823.3141428629556 60.240738729390586L836.6474761962887 60.240738729390586" stroke="#323232" stroke-width="2" fill="none" marker-end="url(#SvgjsMarker1160)"></path></g><g id="SvgjsG1162" transform="translate(836.6474761962887,40.240738729390586)"><path id="SvgjsPath1163" d="M 0 0L 120 0L 120 40L 0 40Z" stroke="none" fill="none"></path><g id="SvgjsG1164"><text id="SvgjsText1165" font-family="微软雅黑" text-anchor="middle" font-size="20px" width="120px" fill="#323232" font-weight="400" align="middle" anchor="middle" family="微软雅黑" size="20px" weight="400" font-style="" opacity="1" y="5" transform="rotate(0)"><tspan id="SvgjsTspan1166" dy="25" x="60"><tspan id="SvgjsTspan1167" style="text-decoration:;">end</tspan></tspan></text></g></g><g id="SvgjsG1168"><path id="SvgjsPath1169" d="M439.31414286295626 60.240738729390586L469.3141428629564 60.240738729390586L469.3141428629564 224.7107004942717L439.3141428629564 224.7107004942717" stroke="#323232" stroke-width="2" fill="none" marker-end="url(#SvgjsMarker1170)"></path></g><g id="SvgjsG1172" transform="translate(369.3141428629564,189.7107004942717)"><path id="SvgjsPath1173" d="M 0 35C 0 -11.666666666666666 70 -11.666666666666666 70 35C 70 81.66666666666667 0 81.66666666666667 0 35Z" stroke="rgba(50,50,50,1)" stroke-width="2" fill-opacity="1" fill="#ffffff"></path><g id="SvgjsG1174"><text id="SvgjsText1175" font-family="微软雅黑" text-anchor="middle" font-size="13px" width="50px" fill="#323232" font-weight="400" align="middle" anchor="middle" family="微软雅黑" size="13px" weight="400" font-style="" opacity="1" y="9.55" transform="rotate(0)"><tspan id="SvgjsTspan1176" dy="16" x="35"><tspan id="SvgjsTspan1177" style="text-decoration:;">port_de</tspan></tspan><tspan id="SvgjsTspan1178" dy="16" x="35"><tspan id="SvgjsTspan1179" style="text-decoration:;">claratio</tspan></tspan><tspan id="SvgjsTspan1180" dy="16" x="35"><tspan id="SvgjsTspan1181" style="text-decoration:;">n</tspan></tspan></text></g></g><g id="SvgjsG1182"><path id="SvgjsPath1183" d="M369.3141428629564 224.7107004942717L330.0427551269531 224.7107004942717L330.0427551269531 62.84210205078125" stroke="#323232" stroke-width="2" fill="none" marker-end="url(#SvgjsMarker1184)"></path></g></svg>