<svg id="SvgjsSvg1292" width="792.0395202636719" height="463.9934387207031" xmlns="http://www.w3.org/2000/svg" version="1.1" xmlns:xlink="http://www.w3.org/1999/xlink" xmlns:svgjs="http://svgjs.com/svgjs"><defs id="SvgjsDefs1293"><marker id="SvgjsMarker1304" markerWidth="16" markerHeight="12" refX="16" refY="6" viewBox="0 0 16 12" orient="auto" markerUnits="userSpaceOnUse" stroke-dasharray="0,0"><path id="SvgjsPath1305" d="M0,2 L14,6 L0,11 L0,2" fill="#323232" stroke="#323232" stroke-width="2"></path></marker><marker id="SvgjsMarker1314" markerWidth="16" markerHeight="12" refX="16" refY="6" viewBox="0 0 16 12" orient="auto" markerUnits="userSpaceOnUse" stroke-dasharray="0,0"><path id="SvgjsPath1315" d="M0,2 L14,6 L0,11 L0,2" fill="#323232" stroke="#323232" stroke-width="2"></path></marker><marker id="SvgjsMarker1352" markerWidth="16" markerHeight="12" refX="16" refY="6" viewBox="0 0 16 12" orient="auto" markerUnits="userSpaceOnUse" stroke-dasharray="0,0"><path id="SvgjsPath1353" d="M0,2 L14,6 L0,11 L0,2" fill="#323232" stroke="#323232" stroke-width="2"></path></marker><marker id="SvgjsMarker1356" markerWidth="16" markerHeight="12" refX="16" refY="6" viewBox="0 0 16 12" orient="auto" markerUnits="userSpaceOnUse" stroke-dasharray="0,0"><path id="SvgjsPath1357" d="M0,2 L14,6 L0,11 L0,2" fill="#323232" stroke="#323232" stroke-width="2"></path></marker><marker id="SvgjsMarker1366" markerWidth="16" markerHeight="12" refX="16" refY="6" viewBox="0 0 16 12" orient="auto" markerUnits="userSpaceOnUse" stroke-dasharray="0,0"><path id="SvgjsPath1367" d="M0,2 L14,6 L0,11 L0,2" fill="#323232" stroke="#323232" stroke-width="2"></path></marker><marker id="SvgjsMarker1370" markerWidth="16" markerHeight="12" refX="16" refY="6" viewBox="0 0 16 12" orient="auto" markerUnits="userSpaceOnUse" stroke-dasharray="0,0"><path id="SvgjsPath1371" d="M0,2 L14,6 L0,11 L0,2" fill="#323232" stroke="#323232" stroke-width="2"></path></marker><marker id="SvgjsMarker1374" markerWidth="16" markerHeight="12" refX="16" refY="6" viewBox="0 0 16 12" orient="auto" markerUnits="userSpaceOnUse" stroke-dasharray="0,0"><path id="SvgjsPath1375" d="M0,2 L14,6 L0,11 L0,2" fill="#323232" stroke="#323232" stroke-width="2"></path></marker><marker id="SvgjsMarker1378" markerWidth="16" markerHeight="12" refX="16" refY="6" viewBox="0 0 16 12" orient="auto" markerUnits="userSpaceOnUse" stroke-dasharray="0,0"><path id="SvgjsPath1379" d="M0,2 L14,6 L0,11 L0,2" fill="#323232" stroke="#323232" stroke-width="2"></path></marker></defs><g id="SvgjsG1294" transform="translate(25.004256705305096,39.54492950439453)"><path id="SvgjsPath1295" d="M 0 0L 147.04179432008553 0L 147.04179432008553 29.916671752929688L 0 29.916671752929688Z" stroke="none" fill="none"></path><g id="SvgjsG1296"><text id="SvgjsText1297" font-family="微软雅黑" text-anchor="middle" font-size="20px" width="148px" fill="#000000" font-weight="400" align="middle" anchor="middle" family="微软雅黑" size="20px" weight="400" font-style="" opacity="1" y="-12.041664123535156" transform="rotate(0)"><tspan id="SvgjsTspan1298" dy="25" x="74"><tspan id="SvgjsTspan1299" style="text-decoration:;">module or </tspan></tspan><tspan id="SvgjsTspan1300" dy="25" x="74"><tspan id="SvgjsTspan1301" style="text-decoration:;">generate item</tspan></tspan></text></g></g><g id="SvgjsG1302"><path id="SvgjsPath1303" d="M174.04605102539062 54.003265380859375L256.5460510253906 54.003265380859375L256.5460510253906 59.503265380859375L339.0460510253906 59.503265380859375" stroke="#323232" stroke-width="2" fill="none" marker-end="url(#SvgjsMarker1304)"></path></g><g id="SvgjsG1306" transform="translate(339.0460510253906,25.003265380859375)"><path id="SvgjsPath1307" d="M 0 34.5C 0 -11.5 99 -11.5 99 34.5C 99 80.5 0 80.5 0 34.5Z" stroke="rgba(50,50,50,1)" stroke-width="2" fill-opacity="1" fill="#ffffff"></path><g id="SvgjsG1308"><text id="SvgjsText1309" font-family="微软雅黑" text-anchor="middle" font-size="13px" width="79px" fill="#323232" font-weight="400" align="middle" anchor="middle" family="微软雅黑" size="13px" weight="400" font-style="" opacity="1" y="24.55" transform="rotate(0)"><tspan id="SvgjsTspan1310" dy="16" x="49.5"><tspan id="SvgjsTspan1311" style="text-decoration:;">m_o_g_i_d</tspan></tspan></text></g></g><g id="SvgjsG1312"><path id="SvgjsPath1313" d="M438.0460510253906 59.503265380859375L539.5460510253906 59.503265380859375L539.5460510253906 59.503265380859375L641.0460510253906 59.503265380859375" stroke="#323232" stroke-width="2" fill="none" marker-end="url(#SvgjsMarker1314)"></path></g><g id="SvgjsG1316" transform="translate(305.0460510253906,89.00326538085938)"><path id="SvgjsPath1317" d="M 0 0L 221 0L 221 35L 0 35Z" stroke="none" fill="none"></path><g id="SvgjsG1318"><text id="SvgjsText1319" font-family="微软雅黑" text-anchor="start" font-size="13px" width="221px" fill="#323232" font-weight="400" align="middle" anchor="start" family="微软雅黑" size="13px" weight="400" font-style="" opacity="1" y="-0.44999999999999996" transform="rotate(0)"><tspan id="SvgjsTspan1320" dy="16" x="0"><tspan id="SvgjsTspan1321" style="text-decoration:;">module_or_generate_item</tspan></tspan><tspan id="SvgjsTspan1322" dy="16" x="0"><tspan id="SvgjsTspan1323" style="text-decoration:;">实现对module内部线的定义</tspan></tspan></text></g></g><g id="SvgjsG1324" transform="translate(339.0460510253906,138.00326538085938)"><path id="SvgjsPath1325" d="M 0 34.5C 0 -11.5 99 -11.5 99 34.5C 99 80.5 0 80.5 0 34.5Z" stroke="rgba(50,50,50,1)" stroke-width="2" fill-opacity="1" fill="#ffffff"></path><g id="SvgjsG1326"><text id="SvgjsText1327" font-family="微软雅黑" text-anchor="middle" font-size="13px" width="79px" fill="#323232" font-weight="400" align="middle" anchor="middle" family="微软雅黑" size="13px" weight="400" font-style="" opacity="1" y="16.55" transform="rotate(0)"><tspan id="SvgjsTspan1328" dy="16" x="49.5"><tspan id="SvgjsTspan1329" style="text-decoration:;">continuous</tspan></tspan><tspan id="SvgjsTspan1330" dy="16" x="49.5"><tspan id="SvgjsTspan1331" style="text-decoration:;">assign</tspan></tspan></text></g></g><g id="SvgjsG1332" transform="translate(339.0460510253906,239.00326538085938)"><path id="SvgjsPath1333" d="M 0 34.5C 0 -11.5 99 -11.5 99 34.5C 99 80.5 0 80.5 0 34.5Z" stroke="rgba(50,50,50,1)" stroke-width="2" fill-opacity="1" fill="#ffffff"></path><g id="SvgjsG1334"><text id="SvgjsText1335" font-family="微软雅黑" text-anchor="middle" font-size="13px" width="79px" fill="#323232" font-weight="400" align="middle" anchor="middle" family="微软雅黑" size="13px" weight="400" font-style="" opacity="1" y="16.55" transform="rotate(0)"><tspan id="SvgjsTspan1336" dy="16" x="49.5"><tspan id="SvgjsTspan1337" style="text-decoration:;">always</tspan></tspan><tspan id="SvgjsTspan1338" dy="16" x="49.5"><tspan id="SvgjsTspan1339" style="text-decoration:;">construct</tspan></tspan></text></g></g><g id="SvgjsG1340" transform="translate(339.0460510253906,330.0032653808594)"><path id="SvgjsPath1341" d="M 0 34.5C 0 -11.5 99 -11.5 99 34.5C 99 80.5 0 80.5 0 34.5Z" stroke="rgba(50,50,50,1)" stroke-width="2" fill-opacity="1" fill="#ffffff"></path><g id="SvgjsG1342"><text id="SvgjsText1343" font-family="微软雅黑" text-anchor="middle" font-size="13px" width="79px" fill="#323232" font-weight="400" align="middle" anchor="middle" family="微软雅黑" size="13px" weight="400" font-style="" opacity="1" y="9.05" transform="rotate(0)"><tspan id="SvgjsTspan1344" dy="16" x="49.5"><tspan id="SvgjsTspan1345" style="text-decoration:;">loop </tspan></tspan><tspan id="SvgjsTspan1346" dy="16" x="49.5"><tspan id="SvgjsTspan1347" style="text-decoration:;">generate</tspan></tspan><tspan id="SvgjsTspan1348" dy="16" x="49.5"><tspan id="SvgjsTspan1349" style="text-decoration:;">construct</tspan></tspan></text></g></g><g id="SvgjsG1350"><path id="SvgjsPath1351" d="M173.04605102539062 56.003265380859375L256.0460510253906 56.003265380859375L256.0460510253906 172.50326538085938L339.0460510253906 172.50326538085938" stroke="#323232" stroke-width="2" fill="none" marker-end="url(#SvgjsMarker1352)"></path></g><g id="SvgjsG1354"><path id="SvgjsPath1355" d="M438.0460510253906 172.50326538085938L542.5460510253906 172.50326538085938L542.5460510253906 60.003265380859375L647.0460510253906 60.003265380859375" stroke="#323232" stroke-width="2" fill="none" marker-end="url(#SvgjsMarker1356)"></path></g><g id="SvgjsG1358" transform="translate(647.0460510253906,39.503265380859375)"><path id="SvgjsPath1359" d="M 0 0L 120 0L 120 40L 0 40Z" stroke="none" fill="none"></path><g id="SvgjsG1360"><text id="SvgjsText1361" font-family="微软雅黑" text-anchor="middle" font-size="13px" width="120px" fill="#323232" font-weight="400" align="middle" anchor="middle" family="微软雅黑" size="13px" weight="400" font-style="" opacity="1" y="10.05" transform="rotate(0)"><tspan id="SvgjsTspan1362" dy="16" x="60"><tspan id="SvgjsTspan1363" style="text-decoration:;">end</tspan></tspan></text></g></g><g id="SvgjsG1364"><path id="SvgjsPath1365" d="M258.0460510253906 62.003265380859375L258.0460510253906 273.5032653808594L339.0460510253906 273.5032653808594" stroke="#323232" stroke-width="2" fill="none" marker-end="url(#SvgjsMarker1366)"></path></g><g id="SvgjsG1368"><path id="SvgjsPath1369" d="M438.0460510253906 273.5032653808594L542.5460510253906 273.5032653808594L542.5460510253906 59.503265380859375L647.0460510253906 59.503265380859375" stroke="#323232" stroke-width="2" fill="none" marker-end="url(#SvgjsMarker1370)"></path></g><g id="SvgjsG1372"><path id="SvgjsPath1373" d="M258.0460510253906 61.003265380859375L258.0460510253906 364.5032653808594L339.0460510253906 364.5032653808594" stroke="#323232" stroke-width="2" fill="none" marker-end="url(#SvgjsMarker1374)"></path></g><g id="SvgjsG1376"><path id="SvgjsPath1377" d="M438.0460510253906 364.5032653808594L542.5460510253906 364.5032653808594L542.5460510253906 59.503265380859375L647.0460510253906 59.503265380859375" stroke="#323232" stroke-width="2" fill="none" marker-end="url(#SvgjsMarker1378)"></path></g><g id="SvgjsG1380" transform="translate(305.0460510253906,204.00326538085938)"><path id="SvgjsPath1381" d="M 0 0L 221 0L 221 35L 0 35Z" stroke="none" fill="none"></path><g id="SvgjsG1382"><text id="SvgjsText1383" font-family="微软雅黑" text-anchor="start" font-size="13px" width="221px" fill="#323232" font-weight="400" align="middle" anchor="start" family="微软雅黑" size="13px" weight="400" font-style="" opacity="1" y="7.55" transform="rotate(0)"><tspan id="SvgjsTspan1384" dy="16" x="0"><tspan id="SvgjsTspan1385" style="text-decoration:;">对组合逻辑的电路描述</tspan></tspan></text></g></g><g id="SvgjsG1386" transform="translate(305.0460510253906,299.0032653808594)"><path id="SvgjsPath1387" d="M 0 0L 221 0L 221 35L 0 35Z" stroke="none" fill="none"></path><g id="SvgjsG1388"><text id="SvgjsText1389" font-family="微软雅黑" text-anchor="start" font-size="13px" width="221px" fill="#323232" font-weight="400" align="middle" anchor="start" family="微软雅黑" size="13px" weight="400" font-style="" opacity="1" y="7.55" transform="rotate(0)"><tspan id="SvgjsTspan1390" dy="16" x="0"><tspan id="SvgjsTspan1391" style="text-decoration:;">对组合、时序逻辑的电路描述</tspan></tspan></text></g></g><g id="SvgjsG1392" transform="translate(305.0460510253906,403.0032653808594)"><path id="SvgjsPath1393" d="M 0 0L 221 0L 221 35L 0 35Z" stroke="none" fill="none"></path><g id="SvgjsG1394"><text id="SvgjsText1395" font-family="微软雅黑" text-anchor="start" font-size="13px" width="221px" fill="#323232" font-weight="400" align="middle" anchor="start" family="微软雅黑" size="13px" weight="400" font-style="" opacity="1" y="7.55" transform="rotate(0)"><tspan id="SvgjsTspan1396" dy="16" x="0"><tspan id="SvgjsTspan1397" style="text-decoration:;">用循环结构生成组合电路</tspan></tspan></text></g></g></svg>