<svg id="SvgjsSvg1398" width="1069.0460205078125" height="312.4967041015625" xmlns="http://www.w3.org/2000/svg" version="1.1" xmlns:xlink="http://www.w3.org/1999/xlink" xmlns:svgjs="http://svgjs.com/svgjs"><defs id="SvgjsDefs1399"><marker id="SvgjsMarker1416" markerWidth="16" markerHeight="12" refX="16" refY="6" viewBox="0 0 16 12" orient="auto" markerUnits="userSpaceOnUse" stroke-dasharray="0,0"><path id="SvgjsPath1417" d="M0,2 L14,6 L0,11 L0,2" fill="#323232" stroke="#323232" stroke-width="2"></path></marker><marker id="SvgjsMarker1420" markerWidth="16" markerHeight="12" refX="16" refY="6" viewBox="0 0 16 12" orient="auto" markerUnits="userSpaceOnUse" stroke-dasharray="0,0"><path id="SvgjsPath1421" d="M0,2 L14,6 L0,11 L0,2" fill="#323232" stroke="#323232" stroke-width="2"></path></marker><marker id="SvgjsMarker1430" markerWidth="16" markerHeight="12" refX="16" refY="6" viewBox="0 0 16 12" orient="auto" markerUnits="userSpaceOnUse" stroke-dasharray="0,0"><path id="SvgjsPath1431" d="M0,2 L14,6 L0,11 L0,2" fill="#323232" stroke="#323232" stroke-width="2"></path></marker><marker id="SvgjsMarker1440" markerWidth="16" markerHeight="12" refX="16" refY="6" viewBox="0 0 16 12" orient="auto" markerUnits="userSpaceOnUse" stroke-dasharray="0,0"><path id="SvgjsPath1441" d="M0,2 L14,6 L0,11 L0,2" fill="#323232" stroke="#323232" stroke-width="2"></path></marker><marker id="SvgjsMarker1450" markerWidth="16" markerHeight="12" refX="16" refY="6" viewBox="0 0 16 12" orient="auto" markerUnits="userSpaceOnUse" stroke-dasharray="0,0"><path id="SvgjsPath1451" d="M0,2 L14,6 L0,11 L0,2" fill="#323232" stroke="#323232" stroke-width="2"></path></marker><marker id="SvgjsMarker1460" markerWidth="16" markerHeight="12" refX="16" refY="6" viewBox="0 0 16 12" orient="auto" markerUnits="userSpaceOnUse" stroke-dasharray="0,0"><path id="SvgjsPath1461" d="M0,2 L14,6 L0,11 L0,2" fill="#323232" stroke="#323232" stroke-width="2"></path></marker><marker id="SvgjsMarker1474" markerWidth="16" markerHeight="12" refX="16" refY="6" viewBox="0 0 16 12" orient="auto" markerUnits="userSpaceOnUse" stroke-dasharray="0,0"><path id="SvgjsPath1475" d="M0,2 L14,6 L0,11 L0,2" fill="#323232" stroke="#323232" stroke-width="2"></path></marker><marker id="SvgjsMarker1484" markerWidth="16" markerHeight="12" refX="16" refY="6" viewBox="0 0 16 12" orient="auto" markerUnits="userSpaceOnUse" stroke-dasharray="0,0"><path id="SvgjsPath1485" d="M0,2 L14,6 L0,11 L0,2" fill="#323232" stroke="#323232" stroke-width="2"></path></marker><marker id="SvgjsMarker1488" markerWidth="16" markerHeight="12" refX="16" refY="6" viewBox="0 0 16 12" orient="auto" markerUnits="userSpaceOnUse" stroke-dasharray="0,0"><path id="SvgjsPath1489" d="M0,2 L14,6 L0,11 L0,2" fill="#323232" stroke="#323232" stroke-width="2"></path></marker><marker id="SvgjsMarker1498" markerWidth="16" markerHeight="12" refX="16" refY="6" viewBox="0 0 16 12" orient="auto" markerUnits="userSpaceOnUse" stroke-dasharray="0,0"><path id="SvgjsPath1499" d="M0,2 L14,6 L0,11 L0,2" fill="#323232" stroke="#323232" stroke-width="2"></path></marker><marker id="SvgjsMarker1512" markerWidth="16" markerHeight="12" refX="16" refY="6" viewBox="0 0 16 12" orient="auto" markerUnits="userSpaceOnUse" stroke-dasharray="0,0"><path id="SvgjsPath1513" d="M0,2 L14,6 L0,11 L0,2" fill="#323232" stroke="#323232" stroke-width="2"></path></marker></defs><g id="SvgjsG1400" transform="translate(25.01411388303947,41.04822540283203)"><path id="SvgjsPath1401" d="M 0 0L 147.04179432008553 0L 147.04179432008553 29.916671752929688L 0 29.916671752929688Z" stroke="none" fill="none"></path><g id="SvgjsG1402"><text id="SvgjsText1403" font-family="微软雅黑" text-anchor="middle" font-size="20px" width="148px" fill="#000000" font-weight="400" align="middle" anchor="middle" family="微软雅黑" size="20px" weight="400" font-style="" opacity="1" y="-12.041664123535156" transform="rotate(0)"><tspan id="SvgjsTspan1404" dy="25" x="74"><tspan id="SvgjsTspan1405" style="text-decoration:;">always </tspan></tspan><tspan id="SvgjsTspan1406" dy="25" x="74"><tspan id="SvgjsTspan1407" style="text-decoration:;">construct</tspan></tspan></text></g></g><g id="SvgjsG1408" transform="translate(215.055908203125,25.006561279296875)"><path id="SvgjsPath1409" d="M 0 35C 0 -11.666666666666666 70 -11.666666666666666 70 35C 70 81.66666666666667 0 81.66666666666667 0 35Z" stroke="rgba(50,50,50,1)" stroke-width="2" fill-opacity="1" fill="#ffffff"></path><g id="SvgjsG1410"><text id="SvgjsText1411" font-family="微软雅黑" text-anchor="middle" font-size="20px" width="50px" fill="#323232" font-weight="700" align="middle" anchor="middle" family="微软雅黑" size="20px" weight="700" font-style="" opacity="1" y="20" transform="rotate(0)"><tspan id="SvgjsTspan1412" dy="25" x="35"><tspan id="SvgjsTspan1413" style="text-decoration:;">@</tspan></tspan></text></g></g><g id="SvgjsG1414"><path id="SvgjsPath1415" d="M139.055908203125 59.506561279296875L177.055908203125 59.506561279296875L177.055908203125 60.006561279296875L215.055908203125 60.006561279296875" stroke="#323232" stroke-width="2" fill="none" marker-end="url(#SvgjsMarker1416)"></path></g><g id="SvgjsG1418"><path id="SvgjsPath1419" d="M877.055908203125 60.006561279296875L900.555908203125 60.006561279296875L900.555908203125 60.006561279296875L924.055908203125 60.006561279296875" stroke="#323232" stroke-width="2" fill="none" marker-end="url(#SvgjsMarker1420)"></path></g><g id="SvgjsG1422" transform="translate(924.055908203125,40.006561279296875)"><path id="SvgjsPath1423" d="M 0 0L 120 0L 120 40L 0 40Z" stroke="none" fill="none"></path><g id="SvgjsG1424"><text id="SvgjsText1425" font-family="微软雅黑" text-anchor="middle" font-size="13px" width="120px" fill="#323232" font-weight="400" align="middle" anchor="middle" family="微软雅黑" size="13px" weight="400" font-style="" opacity="1" y="10.05" transform="rotate(0)"><tspan id="SvgjsTspan1426" dy="16" x="60"><tspan id="SvgjsTspan1427" style="text-decoration:;">end</tspan></tspan></text></g></g><g id="SvgjsG1428"><path id="SvgjsPath1429" d="M324.055908203125 60.506561279296875L324.055908203125 251.50656127929688L513.055908203125 251.50656127929688" stroke="#323232" stroke-width="2" fill="none" marker-end="url(#SvgjsMarker1430)"></path></g><g id="SvgjsG1432" transform="translate(513.055908203125,216.50656127929688)"><path id="SvgjsPath1433" d="M 0 35C 0 -11.666666666666666 70 -11.666666666666666 70 35C 70 81.66666666666667 0 81.66666666666667 0 35Z" stroke="rgba(50,50,50,1)" stroke-width="2" fill-opacity="1" fill="#ffffff"></path><g id="SvgjsG1434"><text id="SvgjsText1435" font-family="微软雅黑" text-anchor="middle" font-size="13px" width="50px" fill="#323232" font-weight="700" align="middle" anchor="middle" family="微软雅黑" size="13px" weight="700" font-style="" opacity="1" y="25.05" transform="rotate(0)"><tspan id="SvgjsTspan1436" dy="16" x="35"><tspan id="SvgjsTspan1437" style="text-decoration:;">*</tspan></tspan></text></g></g><g id="SvgjsG1438"><path id="SvgjsPath1439" d="M583.055908203125 251.50656127929688L688.555908203125 251.50656127929688L688.555908203125 60.006561279296875L794.055908203125 60.006561279296875" stroke="#323232" stroke-width="2" fill="none" marker-end="url(#SvgjsMarker1440)"></path></g><g id="SvgjsG1442" transform="translate(794.055908203125,25.006561279296875)"><path id="SvgjsPath1443" d="M 0 35C 0 -11.666666666666666 83 -11.666666666666666 83 35C 83 81.66666666666667 0 81.66666666666667 0 35Z" stroke="rgba(50,50,50,1)" stroke-width="2" fill-opacity="1" fill="#ffffff"></path><g id="SvgjsG1444"><text id="SvgjsText1445" font-family="微软雅黑" text-anchor="middle" font-size="13px" width="63px" fill="#323232" font-weight="400" align="middle" anchor="middle" family="微软雅黑" size="13px" weight="400" font-style="" opacity="1" y="25.05" transform="rotate(0)"><tspan id="SvgjsTspan1446" dy="16" x="41.5"><tspan id="SvgjsTspan1447" style="text-decoration:;">statement</tspan></tspan></text></g></g><g id="SvgjsG1448"><path id="SvgjsPath1449" d="M285.055908203125 60.006561279296875L328.555908203125 60.006561279296875L328.555908203125 60.006561279296875L372.055908203125 60.006561279296875" stroke="#323232" stroke-width="2" fill="none" marker-end="url(#SvgjsMarker1450)"></path></g><g id="SvgjsG1452" transform="translate(372.055908203125,39.006561279296875)"><path id="SvgjsPath1453" d="M 0 21C 0 -7 36 -7 36 21C 36 49 0 49 0 21Z" stroke="rgba(50,50,50,1)" stroke-width="2" fill-opacity="1" fill="#ffffff"></path><g id="SvgjsG1454"><text id="SvgjsText1455" font-family="微软雅黑" text-anchor="middle" font-size="13px" width="16px" fill="#323232" font-weight="700" align="middle" anchor="middle" family="微软雅黑" size="13px" weight="700" font-style="" opacity="1" y="11.05" transform="rotate(0)"><tspan id="SvgjsTspan1456" dy="16" x="18"><tspan id="SvgjsTspan1457" style="text-decoration:;">(</tspan></tspan></text></g></g><g id="SvgjsG1458"><path id="SvgjsPath1459" d="M408.055908203125 60.006561279296875L426.555908203125 60.006561279296875L426.555908203125 60.006561279296875L445.055908203125 60.006561279296875" stroke="#323232" stroke-width="2" fill="none" marker-end="url(#SvgjsMarker1460)"></path></g><g id="SvgjsG1462" transform="translate(445.055908203125,34.256561279296875)"><path id="SvgjsPath1463" d="M 0 25.75C 0 -8.583333333333334 43 -8.583333333333334 43 25.75C 43 60.083333333333336 0 60.083333333333336 0 25.75Z" stroke="rgba(50,50,50,1)" stroke-width="2" fill-opacity="1" fill="#ffffff"></path><g id="SvgjsG1464"><text id="SvgjsText1465" font-family="微软雅黑" text-anchor="middle" font-size="12px" width="23px" fill="#323232" font-weight="400" align="middle" anchor="middle" family="微软雅黑" size="12px" weight="400" font-style="" opacity="1" y="1.9500000000000002" transform="rotate(0)"><tspan id="SvgjsTspan1466" dy="15" x="21.5"><tspan id="SvgjsTspan1467" style="text-decoration:;">pos</tspan></tspan><tspan id="SvgjsTspan1468" dy="15" x="21.5"><tspan id="SvgjsTspan1469" style="text-decoration:;">edg</tspan></tspan><tspan id="SvgjsTspan1470" dy="15" x="21.5"><tspan id="SvgjsTspan1471" style="text-decoration:;">e</tspan></tspan></text></g></g><g id="SvgjsG1472"><path id="SvgjsPath1473" d="M488.055908203125 60.006561279296875L519.055908203125 60.006561279296875L519.055908203125 60.006561279296875L550.055908203125 60.006561279296875" stroke="#323232" stroke-width="2" fill="none" marker-end="url(#SvgjsMarker1474)"></path></g><g id="SvgjsG1476" transform="translate(550.055908203125,25.006561279296875)"><path id="SvgjsPath1477" d="M 0 35C 0 -11.666666666666666 82 -11.666666666666666 82 35C 82 81.66666666666667 0 81.66666666666667 0 35Z" stroke="rgba(50,50,50,1)" stroke-width="2" fill-opacity="1" fill="#ffffff"></path><g id="SvgjsG1478"><text id="SvgjsText1479" font-family="微软雅黑" text-anchor="middle" font-size="12px" width="62px" fill="#323232" font-weight="400" align="middle" anchor="middle" family="微软雅黑" size="12px" weight="400" font-style="" opacity="1" y="25.7" transform="rotate(0)"><tspan id="SvgjsTspan1480" dy="15" x="41"><tspan id="SvgjsTspan1481" style="text-decoration:;">expression</tspan></tspan></text></g></g><g id="SvgjsG1482"><path id="SvgjsPath1483" d="M632.055908203125 60.006561279296875L713.055908203125 60.006561279296875L713.055908203125 60.006561279296875L794.055908203125 60.006561279296875" stroke="#323232" stroke-width="2" fill="none" marker-end="url(#SvgjsMarker1484)"></path></g><g id="SvgjsG1486"><path id="SvgjsPath1487" d="M661.055908203125 60.506561279296875L661.055908203125 165.00656127929688L643.055908203125 165.00656127929688" stroke="#323232" stroke-width="2" fill="none" marker-end="url(#SvgjsMarker1488)"></path></g><g id="SvgjsG1490" transform="translate(606.055908203125,143.50656127929688)"><path id="SvgjsPath1491" d="M 0 21.5C 0 -7.166666666666667 37 -7.166666666666667 37 21.5C 37 50.166666666666664 0 50.166666666666664 0 21.5Z" stroke="rgba(50,50,50,1)" stroke-width="2" fill-opacity="1" fill="#ffffff"></path><g id="SvgjsG1492"><text id="SvgjsText1493" font-family="微软雅黑" text-anchor="middle" font-size="13px" width="17px" fill="#323232" font-weight="700" align="middle" anchor="middle" family="微软雅黑" size="13px" weight="700" font-style="" opacity="1" y="11.55" transform="rotate(0)"><tspan id="SvgjsTspan1494" dy="16" x="18.5"><tspan id="SvgjsTspan1495" style="text-decoration:;">or</tspan></tspan></text></g></g><g id="SvgjsG1496"><path id="SvgjsPath1497" d="M606.055908203125 165.00656127929688L594.555908203125 165.00656127929688L594.555908203125 165.00656127929688L583.055908203125 165.00656127929688" stroke="#323232" stroke-width="2" fill="none" marker-end="url(#SvgjsMarker1498)"></path></g><g id="SvgjsG1500" transform="translate(538.055908203125,140.25656127929688)"><path id="SvgjsPath1501" d="M 0 24.75C 0 -8.25 45 -8.25 45 24.75C 45 57.75 0 57.75 0 24.75Z" stroke="rgba(50,50,50,1)" stroke-width="2" fill-opacity="1" fill="#ffffff"></path><g id="SvgjsG1502"><text id="SvgjsText1503" font-family="微软雅黑" text-anchor="middle" font-size="13px" width="25px" fill="#323232" font-weight="400" align="middle" anchor="middle" family="微软雅黑" size="13px" weight="400" font-style="" opacity="1" y="-0.7" transform="rotate(0)"><tspan id="SvgjsTspan1504" dy="16" x="22.5"><tspan id="SvgjsTspan1505" style="text-decoration:;">exp</tspan></tspan><tspan id="SvgjsTspan1506" dy="16" x="22.5"><tspan id="SvgjsTspan1507" style="text-decoration:;">ress</tspan></tspan><tspan id="SvgjsTspan1508" dy="16" x="22.5"><tspan id="SvgjsTspan1509" style="text-decoration:;">ion</tspan></tspan></text></g></g><g id="SvgjsG1510"><path id="SvgjsPath1511" d="M538.055908203125 165.00656127929688L508.055908203125 165.00656127929688L508.055908203125 60.006561279296875L550.055908203125 60.006561279296875" stroke="#323232" stroke-width="2" fill="none" marker-end="url(#SvgjsMarker1512)"></path></g></svg>